<?xml version="1.0" encoding="UTF-8" standalone="no"?>
<svg width="176px" height="44px" viewBox="0 0 176 44" version="1.1" xmlns="http://www.w3.org/2000/svg" xmlns:xlink="http://www.w3.org/1999/xlink" xmlns:sketch="http://www.bohemiancoding.com/sketch/ns">
    <!-- Generator: Sketch 3.5.2 (25235) - http://www.bohemiancoding.com/sketch -->
    <title>arrows-dark</title>
    <desc>Created with Sketch.</desc>
    <defs></defs>
    <g id="Page-1" stroke="none" stroke-width="1" fill="none" fill-rule="evenodd" sketch:type="MSPage">
        <g id="arrows-dark" sketch:type="MSArtboardGroup" fill="#242121">
            <g id="Group-15" sketch:type="MSLayerGroup" transform="translate(2.000000, 2.000000)">
                <path d="M20,0 C17.23957,0 14.64194,0.52083 12.20703,1.5625 C9.772125,2.60417 7.64975,4.02994 5.839845,5.839845 C4.029939,7.64975 2.604172,9.772125 1.5625,12.20703 C0.520828,14.64194 0,17.23957 0,20 C0,22.76043 0.520828,25.35806 1.5625,27.79297 C2.604172,30.227875 4.029939,32.35025 5.839845,34.160155 C7.64975,35.970061 9.772125,37.395828 12.20703,38.4375 C14.64194,39.479172 17.23957,40 20,40 C22.76043,40 25.35806,39.479172 27.79297,38.4375 C30.227875,37.395828 32.35025,35.970061 34.160155,34.160155 C35.97006,32.35025 37.39583,30.227875 38.4375,27.79297 C39.47917,25.35806 40,22.76043 40,20 C40,17.23957 39.47917,14.64194 38.4375,12.20703 C37.39583,9.772125 35.97006,7.64975 34.160155,5.839845 C32.35025,4.02994 30.227875,2.60417 27.79297,1.5625 C25.35806,0.52083 22.76043,0 20,0 L20,0 Z M20,37.5 C17.578115,37.5 15.306,37.0442755 13.183595,36.1328125 C11.061185,35.2213495 9.205735,33.97136 7.61719,32.38281 C6.02864,30.794265 4.7786505,28.938815 3.8671875,26.816405 C2.9557245,24.694 2.5,22.421885 2.5,20 C2.5,17.578115 2.9557245,15.306 3.8671875,13.183595 C4.7786505,11.061185 6.02864,9.205735 7.61719,7.61719 C9.205735,6.02864 11.061185,4.77865 13.183595,3.86719 C15.306,2.955725 17.578115,2.5 20,2.5 C22.421885,2.5 24.694,2.955725 26.816405,3.86719 C28.938815,4.77865 30.794265,6.02864 32.38281,7.61719 C33.97136,9.205735 35.22135,11.061185 36.13281,13.183595 C37.044275,15.306 37.5,17.578115 37.5,20 C37.5,22.421885 37.044275,24.694 36.13281,26.816405 C35.22135,28.938815 33.97136,30.794265 32.38281,32.38281 C30.794265,33.97136 28.938815,35.2213495 26.816405,36.1328125 C24.694,37.0442755 22.421885,37.5 20,37.5 L20,37.5 Z M28.75,18.75 L15.50781,18.75 L20.66406,13.59375 C20.92448,13.359375 21.05469,13.06641 21.05469,12.714845 C21.05469,12.36328 20.92448,12.070315 20.66406,11.83594 C20.429685,11.57552 20.13672,11.44531 19.785155,11.44531 C19.43359,11.44531 19.140625,11.57552 18.90625,11.83594 L11.83594,18.90625 C11.679685,19.0625 11.57552,19.23828 11.52344,19.433595 C11.471355,19.628905 11.471355,19.817705 11.52344,20 C11.471355,20.182295 11.471355,20.371095 11.52344,20.566405 C11.57552,20.76172 11.679685,20.9375 11.83594,21.09375 L18.90625,28.16406 C19.140625,28.42448 19.43359,28.55469 19.785155,28.55469 C20.13672,28.55469 20.429685,28.42448 20.66406,28.16406 C20.92448,27.929685 21.05469,27.63672 21.05469,27.285155 C21.05469,26.93359 20.92448,26.640625 20.66406,26.40625 L15.50781,21.25 L28.75,21.25 C29.088545,21.25 29.38151,21.126305 29.628905,20.878905 C29.876305,20.63151 30,20.338545 30,20 C30,19.661455 29.876305,19.36849 29.628905,19.121095 C29.38151,18.873695 29.088545,18.75 28.75,18.75 L28.75,18.75 Z" id="Page-1" sketch:type="MSShapeGroup" transform="translate(20.000000, 20.000000) scale(1, -1) rotate(-270.000000) translate(-20.000000, -20.000000) "></path>
                <path d="M108,0 C105.23957,0 102.64194,0.52083 100.20703,1.5625 C97.772125,2.60417 95.64975,4.02994 93.839845,5.839845 C92.029939,7.64975 90.604172,9.772125 89.5625,12.20703 C88.520828,14.64194 88,17.23957 88,20 C88,22.76043 88.520828,25.35806 89.5625,27.79297 C90.604172,30.227875 92.029939,32.35025 93.839845,34.160155 C95.64975,35.970061 97.772125,37.395828 100.20703,38.4375 C102.64194,39.479172 105.23957,40 108,40 C110.76043,40 113.35806,39.479172 115.79297,38.4375 C118.227875,37.395828 120.35025,35.970061 122.160155,34.160155 C123.97006,32.35025 125.39583,30.227875 126.4375,27.79297 C127.47917,25.35806 128,22.76043 128,20 C128,17.23957 127.47917,14.64194 126.4375,12.20703 C125.39583,9.772125 123.97006,7.64975 122.160155,5.839845 C120.35025,4.02994 118.227875,2.60417 115.79297,1.5625 C113.35806,0.52083 110.76043,0 108,0 L108,0 Z M108,37.5 C105.578115,37.5 103.306,37.0442755 101.183595,36.1328125 C99.061185,35.2213495 97.205735,33.97136 95.61719,32.38281 C94.02864,30.794265 92.7786505,28.938815 91.8671875,26.816405 C90.9557245,24.694 90.5,22.421885 90.5,20 C90.5,17.578115 90.9557245,15.306 91.8671875,13.183595 C92.7786505,11.061185 94.02864,9.205735 95.61719,7.61719 C97.205735,6.02864 99.061185,4.77865 101.183595,3.86719 C103.306,2.955725 105.578115,2.5 108,2.5 C110.421885,2.5 112.694,2.955725 114.816405,3.86719 C116.938815,4.77865 118.794265,6.02864 120.38281,7.61719 C121.97136,9.205735 123.22135,11.061185 124.13281,13.183595 C125.044275,15.306 125.5,17.578115 125.5,20 C125.5,22.421885 125.044275,24.694 124.13281,26.816405 C123.22135,28.938815 121.97136,30.794265 120.38281,32.38281 C118.794265,33.97136 116.938815,35.2213495 114.816405,36.1328125 C112.694,37.0442755 110.421885,37.5 108,37.5 L108,37.5 Z M116.75,18.75 L103.50781,18.75 L108.66406,13.59375 C108.92448,13.359375 109.05469,13.06641 109.05469,12.714845 C109.05469,12.36328 108.92448,12.070315 108.66406,11.83594 C108.429685,11.57552 108.13672,11.44531 107.785155,11.44531 C107.43359,11.44531 107.140625,11.57552 106.90625,11.83594 L99.83594,18.90625 C99.679685,19.0625 99.57552,19.23828 99.52344,19.433595 C99.471355,19.628905 99.471355,19.817705 99.52344,20 C99.471355,20.182295 99.471355,20.371095 99.52344,20.566405 C99.57552,20.76172 99.679685,20.9375 99.83594,21.09375 L106.90625,28.16406 C107.140625,28.42448 107.43359,28.55469 107.785155,28.55469 C108.13672,28.55469 108.429685,28.42448 108.66406,28.16406 C108.92448,27.929685 109.05469,27.63672 109.05469,27.285155 C109.05469,26.93359 108.92448,26.640625 108.66406,26.40625 L103.50781,21.25 L116.75,21.25 C117.088545,21.25 117.38151,21.126305 117.628905,20.878905 C117.876305,20.63151 118,20.338545 118,20 C118,19.661455 117.876305,19.36849 117.628905,19.121095 C117.38151,18.873695 117.088545,18.75 116.75,18.75 L116.75,18.75 Z" id="Page-1-Copy" sketch:type="MSShapeGroup" transform="translate(108.000000, 20.000000) scale(1, -1) translate(-108.000000, -20.000000) "></path>
                <path d="M152,0 C149.23957,0 146.64194,0.52083 144.20703,1.5625 C141.772125,2.60417 139.64975,4.02994 137.839845,5.839845 C136.029939,7.64975 134.604172,9.772125 133.5625,12.20703 C132.520828,14.64194 132,17.23957 132,20 C132,22.76043 132.520828,25.35806 133.5625,27.79297 C134.604172,30.227875 136.029939,32.35025 137.839845,34.160155 C139.64975,35.970061 141.772125,37.395828 144.20703,38.4375 C146.64194,39.479172 149.23957,40 152,40 C154.76043,40 157.35806,39.479172 159.79297,38.4375 C162.227875,37.395828 164.35025,35.970061 166.160155,34.160155 C167.97006,32.35025 169.39583,30.227875 170.4375,27.79297 C171.47917,25.35806 172,22.76043 172,20 C172,17.23957 171.47917,14.64194 170.4375,12.20703 C169.39583,9.772125 167.97006,7.64975 166.160155,5.839845 C164.35025,4.02994 162.227875,2.60417 159.79297,1.5625 C157.35806,0.52083 154.76043,0 152,0 L152,0 Z M152,37.5 C149.578115,37.5 147.306,37.0442755 145.183595,36.1328125 C143.061185,35.2213495 141.205735,33.97136 139.61719,32.38281 C138.02864,30.794265 136.77865,28.938815 135.867188,26.816405 C134.955725,24.694 134.5,22.421885 134.5,20 C134.5,17.578115 134.955725,15.306 135.867188,13.183595 C136.77865,11.061185 138.02864,9.205735 139.61719,7.61719 C141.205735,6.02864 143.061185,4.77865 145.183595,3.86719 C147.306,2.955725 149.578115,2.5 152,2.5 C154.421885,2.5 156.694,2.955725 158.816405,3.86719 C160.938815,4.77865 162.794265,6.02864 164.38281,7.61719 C165.97136,9.205735 167.22135,11.061185 168.13281,13.183595 C169.044275,15.306 169.5,17.578115 169.5,20 C169.5,22.421885 169.044275,24.694 168.13281,26.816405 C167.22135,28.938815 165.97136,30.794265 164.38281,32.38281 C162.794265,33.97136 160.938815,35.2213495 158.816405,36.1328125 C156.694,37.0442755 154.421885,37.5 152,37.5 L152,37.5 Z M160.75,18.75 L147.50781,18.75 L152.66406,13.59375 C152.92448,13.359375 153.05469,13.06641 153.05469,12.714845 C153.05469,12.36328 152.92448,12.070315 152.66406,11.83594 C152.429685,11.57552 152.13672,11.44531 151.785155,11.44531 C151.43359,11.44531 151.140625,11.57552 150.90625,11.83594 L143.83594,18.90625 C143.679685,19.0625 143.57552,19.23828 143.52344,19.433595 C143.471355,19.628905 143.471355,19.817705 143.52344,20 C143.471355,20.182295 143.471355,20.371095 143.52344,20.566405 C143.57552,20.76172 143.679685,20.9375 143.83594,21.09375 L150.90625,28.16406 C151.140625,28.42448 151.43359,28.55469 151.785155,28.55469 C152.13672,28.55469 152.429685,28.42448 152.66406,28.16406 C152.92448,27.929685 153.05469,27.63672 153.05469,27.285155 C153.05469,26.93359 152.92448,26.640625 152.66406,26.40625 L147.50781,21.25 L160.75,21.25 C161.088545,21.25 161.38151,21.126305 161.628905,20.878905 C161.876305,20.63151 162,20.338545 162,20 C162,19.661455 161.876305,19.36849 161.628905,19.121095 C161.38151,18.873695 161.088545,18.75 160.75,18.75 L160.75,18.75 Z" id="Page-1-Copy-3" sketch:type="MSShapeGroup" transform="translate(152.000000, 20.000000) scale(-1, -1) translate(-152.000000, -20.000000) "></path>
                <path d="M64,0 C61.23957,0 58.64194,0.52083 56.20703,1.5625 C53.772125,2.60417 51.64975,4.02994 49.839845,5.839845 C48.029939,7.64975 46.604172,9.772125 45.5625,12.20703 C44.520828,14.64194 44,17.23957 44,20 C44,22.76043 44.520828,25.35806 45.5625,27.79297 C46.604172,30.227875 48.029939,32.35025 49.839845,34.160155 C51.64975,35.970061 53.772125,37.395828 56.20703,38.4375 C58.64194,39.479172 61.23957,40 64,40 C66.76043,40 69.35806,39.479172 71.79297,38.4375 C74.227875,37.395828 76.35025,35.970061 78.160155,34.160155 C79.97006,32.35025 81.39583,30.227875 82.4375,27.79297 C83.47917,25.35806 84,22.76043 84,20 C84,17.23957 83.47917,14.64194 82.4375,12.20703 C81.39583,9.772125 79.97006,7.64975 78.160155,5.839845 C76.35025,4.02994 74.227875,2.60417 71.79297,1.5625 C69.35806,0.52083 66.76043,0 64,0 L64,0 Z M64,37.5 C61.578115,37.5 59.306,37.0442755 57.183595,36.1328125 C55.061185,35.2213495 53.205735,33.97136 51.61719,32.38281 C50.02864,30.794265 48.7786505,28.938815 47.8671875,26.816405 C46.9557245,24.694 46.5,22.421885 46.5,20 C46.5,17.578115 46.9557245,15.306 47.8671875,13.183595 C48.7786505,11.061185 50.02864,9.205735 51.61719,7.61719 C53.205735,6.02864 55.061185,4.77865 57.183595,3.86719 C59.306,2.955725 61.578115,2.5 64,2.5 C66.421885,2.5 68.694,2.955725 70.816405,3.86719 C72.938815,4.77865 74.794265,6.02864 76.38281,7.61719 C77.97136,9.205735 79.22135,11.061185 80.13281,13.183595 C81.044275,15.306 81.5,17.578115 81.5,20 C81.5,22.421885 81.044275,24.694 80.13281,26.816405 C79.22135,28.938815 77.97136,30.794265 76.38281,32.38281 C74.794265,33.97136 72.938815,35.2213495 70.816405,36.1328125 C68.694,37.0442755 66.421885,37.5 64,37.5 L64,37.5 Z M72.75,18.75 L59.50781,18.75 L64.66406,13.59375 C64.92448,13.359375 65.05469,13.06641 65.05469,12.714845 C65.05469,12.36328 64.92448,12.070315 64.66406,11.83594 C64.429685,11.57552 64.13672,11.44531 63.785155,11.44531 C63.43359,11.44531 63.140625,11.57552 62.90625,11.83594 L55.83594,18.90625 C55.679685,19.0625 55.57552,19.23828 55.52344,19.433595 C55.471355,19.628905 55.471355,19.817705 55.52344,20 C55.471355,20.182295 55.471355,20.371095 55.52344,20.566405 C55.57552,20.76172 55.679685,20.9375 55.83594,21.09375 L62.90625,28.16406 C63.140625,28.42448 63.43359,28.55469 63.785155,28.55469 C64.13672,28.55469 64.429685,28.42448 64.66406,28.16406 C64.92448,27.929685 65.05469,27.63672 65.05469,27.285155 C65.05469,26.93359 64.92448,26.640625 64.66406,26.40625 L59.50781,21.25 L72.75,21.25 C73.088545,21.25 73.38151,21.126305 73.628905,20.878905 C73.876305,20.63151 74,20.338545 74,20 C74,19.661455 73.876305,19.36849 73.628905,19.121095 C73.38151,18.873695 73.088545,18.75 72.75,18.75 L72.75,18.75 Z" id="Page-1-Copy-2" sketch:type="MSShapeGroup" transform="translate(64.000000, 20.000000) scale(-1, 1) rotate(-270.000000) translate(-64.000000, -20.000000) "></path>
            </g>
        </g>
    </g>
</svg>