<?xml version="1.0" encoding="UTF-8" standalone="no"?>
<svg width="32px" height="32px" viewBox="0 0 32 32" version="1.1" xmlns="http://www.w3.org/2000/svg" xmlns:xlink="http://www.w3.org/1999/xlink" xmlns:sketch="http://www.bohemiancoding.com/sketch/ns">
    <!-- Generator: Sketch 3.5.1 (25234) - http://www.bohemiancoding.com/sketch -->
    <title>icon-close</title>
    <desc>Created with Sketch.</desc>
    <defs></defs>
    <g id="Page-2" stroke="none" stroke-width="1" fill="none" fill-rule="evenodd" sketch:type="MSPage">
        <g id="full-page" sketch:type="MSArtboardGroup" transform="translate(-1368.000000, -31.000000)">
            <g id="nav" sketch:type="MSLayerGroup">
                <g id="Group" transform="translate(1278.000000, 15.000000)" sketch:type="MSShapeGroup">
                    <g id="icon-close" transform="translate(74.000000, 0.000000)">
                        <rect id="Rectangle-48" fill-opacity="0" fill="#FFFFFF" x="0" y="0" width="64" height="64" rx="12"></rect>
                        <path d="M32,29.4209733 L19.1137326,16.534706 C18.400782,15.8217554 17.2471433,15.8220724 16.5354049,16.5338108 C15.8187045,17.2505112 15.8240674,18.3999057 16.5363001,19.1121385 L29.4225675,31.9984059 L16.5363001,44.8846732 C15.8240674,45.596906 15.8187045,46.7463005 16.5354049,47.4630009 C17.2471433,48.1747393 18.400782,48.1750563 19.1137326,47.4621058 L32,34.5758384 L44.8862674,47.4621058 C45.599218,48.1750563 46.7528567,48.1747393 47.4645951,47.4630009 C48.1812955,46.7463005 48.1759326,45.596906 47.4636999,44.8846732 L34.5774325,31.9984059 L47.4636999,19.1121385 C48.1759326,18.3999057 48.1812955,17.2505112 47.4645951,16.5338108 C46.7528567,15.8220724 45.599218,15.8217554 44.8862674,16.534706 L32,29.4209733 Z" id="Rectangle-58" fill="#242121"></path>
                    </g>
                </g>
            </g>
        </g>
    </g>
</svg>