<?xml version="1.0" encoding="UTF-8" standalone="no"?>
<svg width="80px" height="80px" viewBox="0 0 80 80" version="1.1" xmlns="http://www.w3.org/2000/svg" xmlns:xlink="http://www.w3.org/1999/xlink" xmlns:sketch="http://www.bohemiancoding.com/sketch/ns">
    <!-- Generator: Sketch 3.5.1 (25234) - http://www.bohemiancoding.com/sketch -->
    <title>icon-sound</title>
    <desc>Created with Sketch.</desc>
    <defs></defs>
    <g id="web" stroke="none" stroke-width="1" fill="none" fill-rule="evenodd" sketch:type="MSPage">
        <g id="icon-sound" sketch:type="MSArtboardGroup">
            <g id="skills-icon-sound" sketch:type="MSLayerGroup" transform="translate(21.000000, 9.000000)">
                <g id="Group-2" sketch:type="MSShapeGroup">
                    <g id="microphone">
                        <path d="M37,38 C37,42.4 33.4,46 29,46 L21,46 C16.6,46 13,42.4 13,38 L13,14 C13,9.6 16.6,6 21,6 L29,6 C33.4,6 37,9.6 37,14 L37,38 L37,38 Z" id="Shape" fill="#F7BE3C"></path>
                        <rect id="Rectangle-path" fill="#FFDE33" x="13" y="16" width="24" height="20"></rect>
                        <g id="Group" fill="#414B50">
                            <path d="M23.5,43 L15.5,43 C10.3,43 6,38.7 6,33.5 L6,9.5 C6,4.3 10.3,0 15.5,0 L23.5,0 C28.7,0 33,4.3 33,9.5 L33,33.5 C33,38.7 28.7,43 23.5,43 L23.5,43 Z M9,10 L9,9.5 C9,5.9 11.9,3 15.5,3 L23.5,3 C27.1,3 30,5.9 30,9.5 L30,10 L9,10 Z M9,33 L9,33.5 C9,37.1 11.9,40 15.5,40 L23.5,40 C27.1,40 30,37.1 30,33.5 L30,33 L9,33 Z M9,30 L30,30 L30,13 L9,13 L9,30 Z" id="Shape"></path>
                            <path d="M18,60 L18,51 L14,51 C6.1,51 0,45.2 0,37.7 L0,25 C0,24.2 0.7,23.5 1.5,23.5 C2.3,23.5 3,24.2 3,25 L3,37.7 C3,43.5 7.8,48 14,48 L24.7,48 C31,48 36,43.5 36,37.7 L36,25 C36,24.2 36.7,23.5 37.5,23.5 C38.3,23.5 39,24.2 39,25 L39,37.7 C39,45.2 32.7,51 24.7,51 L21,51 L21,60 L25,60 C25.8,60 26.5,60.7 26.5,61.5 C26.5,62.3 25.8,63 25,63 L14,63 C13.2,63 12.5,62.3 12.5,61.5 C12.5,60.7 13.2,60 14,60 L18,60 Z" id="Shape"></path>
                            <path d="M26.8,19.7 C27.6836556,19.7 28.4,18.9836556 28.4,18.1 C28.4,17.2163444 27.6836556,16.5 26.8,16.5 C25.9163444,16.5 25.2,17.2163444 25.2,18.1 C25.2,18.9836556 25.9163444,19.7 26.8,19.7 Z M20.5,19.7 C21.3836556,19.7 22.1,18.9836556 22.1,18.1 C22.1,17.2163444 21.3836556,16.5 20.5,16.5 C19.6163444,16.5 18.9,17.2163444 18.9,18.1 C18.9,18.9836556 19.6163444,19.7 20.5,19.7 Z M14.2,19.7 C15.0836556,19.7 15.8,18.9836556 15.8,18.1 C15.8,17.2163444 15.0836556,16.5 14.2,16.5 C13.3163444,16.5 12.6,17.2163444 12.6,18.1 C12.6,18.9836556 13.3163444,19.7 14.2,19.7 Z M26.8,30.3 C27.6836556,30.3 28.4,29.5836556 28.4,28.7 C28.4,27.8163444 27.6836556,27.1 26.8,27.1 C25.9163444,27.1 25.2,27.8163444 25.2,28.7 C25.2,29.5836556 25.9163444,30.3 26.8,30.3 Z M20.5,30.3 C21.3836556,30.3 22.1,29.5836556 22.1,28.7 C22.1,27.8163444 21.3836556,27.1 20.5,27.1 C19.6163444,27.1 18.9,27.8163444 18.9,28.7 C18.9,29.5836556 19.6163444,30.3 20.5,30.3 Z M14.2,30.3 C15.0836556,30.3 15.8,29.5836556 15.8,28.7 C15.8,27.8163444 15.0836556,27.1 14.2,27.1 C13.3163444,27.1 12.6,27.8163444 12.6,28.7 C12.6,29.5836556 13.3163444,30.3 14.2,30.3 Z M30,25 C30.8836556,25 31.6,24.2836556 31.6,23.4 C31.6,22.5163444 30.8836556,21.8 30,21.8 C29.1163444,21.8 28.4,22.5163444 28.4,23.4 C28.4,24.2836556 29.1163444,25 30,25 Z M11,25 C11.8836556,25 12.6,24.2836556 12.6,23.4 C12.6,22.5163444 11.8836556,21.8 11,21.8 C10.1163444,21.8 9.4,22.5163444 9.4,23.4 C9.4,24.2836556 10.1163444,25 11,25 Z M23.6,25 C24.4836556,25 25.2,24.2836556 25.2,23.4 C25.2,22.5163444 24.4836556,21.8 23.6,21.8 C22.7163444,21.8 22,22.5163444 22,23.4 C22,24.2836556 22.7163444,25 23.6,25 Z M17.3,25 C18.1836556,25 18.9,24.2836556 18.9,23.4 C18.9,22.5163444 18.1836556,21.8 17.3,21.8 C16.4163444,21.8 15.7,22.5163444 15.7,23.4 C15.7,24.2836556 16.4163444,25 17.3,25 Z" id="Oval"></path>
                        </g>
                    </g>
                </g>
            </g>
        </g>
    </g>
</svg>