<?xml version="1.0" encoding="UTF-8" standalone="no"?>
<svg width="80px" height="80px" viewBox="0 0 80 80" version="1.1" xmlns="http://www.w3.org/2000/svg" xmlns:xlink="http://www.w3.org/1999/xlink" xmlns:sketch="http://www.bohemiancoding.com/sketch/ns">
    <!-- Generator: Sketch 3.5.1 (25234) - http://www.bohemiancoding.com/sketch -->
    <title>icon-photography</title>
    <desc>Created with Sketch.</desc>
    <defs></defs>
    <g id="web" stroke="none" stroke-width="1" fill="none" fill-rule="evenodd" sketch:type="MSPage">
        <g id="icon-photography" sketch:type="MSArtboardGroup">
            <g id="skills-icon-photography" sketch:type="MSLayerGroup" transform="translate(7.000000, 14.000000)">
                <g id="photography" sketch:type="MSShapeGroup">
                    <path d="M62.2,16 L46.4,16 L45,9.4 C44.5,7.4 42.7,6 40.6,6 L33,6 C30.9,6 29.1,7.4 28.6,9.4 L27.2,16 L10.8,16 C8.4,16 6.9,17.6 6.9,20 L6.9,48.4 C6.9,50.8 8.4,53 10.8,53 L62.1,53 C64.5,53 66.9,50.8 66.9,48.4 L66.9,20 C67,17.6 64.6,16 62.2,16 L62.2,16 Z" id="Shape" fill="#FFDE33"></path>
                    <circle id="Oval" fill="#F7BE3C" cx="36.2" cy="33.5" r="13.9"></circle>
                    <circle id="Oval" fill="#FFFFFF" cx="36.2" cy="33.5" r="8.5"></circle>
                    <g id="Group-14" fill="#414B50">
                        <path d="M57.2,50 L5.9,50 C2.6,50 1.13686838e-13,47.5 1.13686838e-13,44.4 L1.13686838e-13,16 C1.13686838e-13,12.7 2.7,10 5.9,10 L21,10 L22.1,4.6 C22.8,1.9 25.2,0 27.9,0 L35.5,0 C38.3,0 40.6,1.9 41.3,4.5 L42.5,10 L57.1,10 C60.3,10 62.9,12.8 62.9,16 L62.9,44.4 C63,47.6 60.5,50 57.2,50 L57.2,50 Z M5.9,13 C4.4,13 3,14.4 3,16 L3,44.4 C3,45.9 4.2,47 5.9,47 L57.2,47 C58.8,47 60,45.9 60,44.4 L60,16 C60,14.4 58.7,13 57.2,13 L41.4,13 C40.7,13 40.1,12.5 39.9,11.8 L38.5,5.2 C38.2,3.9 37,3 35.6,3 L28,3 C26.6,3 25.4,3.9 25.1,5.2 L23.7,11.8 C23.6,12.5 22.9,13 22.2,13 L5.9,13 L5.9,13 Z" id="Shape"></path>
                        <path d="M31.2,39.5 C25.7,39.5 21.2,35 21.2,29.5 C21.2,24 25.7,19.5 31.2,19.5 C36.7,19.5 41.2,24 41.2,29.5 C41.2,35 36.7,39.5 31.2,39.5 L31.2,39.5 Z M31.2,22.5 C27.3,22.5 24.2,25.6 24.2,29.5 C24.2,33.4 27.3,36.5 31.2,36.5 C35.1,36.5 38.2,33.4 38.2,29.5 C38.2,25.6 35,22.5 31.2,22.5 L31.2,22.5 Z" id="Shape"></path>
                        <path d="M31.2,44.8 C22.7,44.8 15.8,37.9 15.8,29.4 C15.8,20.9 22.7,14 31.2,14 C39.7,14 46.6,20.9 46.6,29.4 C46.5,37.9 39.7,44.8 31.2,44.8 L31.2,44.8 Z M31.2,17.1 C24.4,17.1 18.8,22.6 18.8,29.5 C18.8,36.3 24.3,41.9 31.2,41.9 C38,41.9 43.6,36.4 43.6,29.5 C43.5,22.7 38,17.1 31.2,17.1 L31.2,17.1 Z" id="Shape"></path>
                        <path d="M18,7 L10,7 C9.2,7 8.5,6.3 8.5,5.5 C8.5,4.7 9.2,4 10,4 L18,4 C18.8,4 19.5,4.7 19.5,5.5 C19.5,6.3 18.8,7 18,7 L18,7 Z" id="Shape"></path>
                        <path d="M49.9,5 L50.5,5 C52.9,5 54,6.9 54,9.3 L54,11 L46,11 L46,9.3 C46,6.9 47.5,5 49.9,5 L49.9,5 Z" id="Shape"></path>
                    </g>
                </g>
            </g>
        </g>
    </g>
</svg>