<?xml version="1.0" encoding="UTF-8" standalone="no"?>
<svg width="60px" height="60px" viewBox="0 0 60 60" version="1.1" xmlns="http://www.w3.org/2000/svg" xmlns:xlink="http://www.w3.org/1999/xlink" xmlns:sketch="http://www.bohemiancoding.com/sketch/ns">
    <!-- Generator: Sketch 3.5.1 (25234) - http://www.bohemiancoding.com/sketch -->
    <title>icon-home</title>
    <desc>Created with Sketch.</desc>
    <defs></defs>
    <g id="web" stroke="none" stroke-width="1" fill="none" fill-rule="evenodd" sketch:type="MSPage">
        <g id="icon-home" sketch:type="MSArtboardGroup" fill="#414B50">
            <g id="message" sketch:type="MSLayerGroup" transform="translate(18.000000, 19.000000)">
                <path d="M24,12.0011766 C24.0037584,12.2671106 23.8990494,12.5231062 23.71,12.7101766 C23.65305,12.7627194 23.5891118,12.8071396 23.52,12.8421766 C23.2159299,13.4385981 22.6561929,13.8635563 22,13.9961766 L21,13.9961766 L21,21.9961766 C21,23.1007461 20.1045695,23.9961766 19,23.9961766 L5,23.9961766 C3.8954305,23.9961766 3,23.1007461 3,21.9961766 L3,13.9961766 L2,13.9961766 C0.921573955,13.9912377 0.0412633737,13.1321607 0.01,12.0541766 C0.01,12.0391766 0,12.0241766 0,12.0091766 L0,11.9961766 L0,11.9961766 C0.00675626134,11.7449948 0.110720463,11.5062357 0.29,11.3301766 L11.19,0.424176608 C11.2152036,0.371312331 11.2489949,0.322990891 11.29,0.281176608 C11.6890983,-0.093725536 12.3109017,-0.093725536 12.71,0.281176608 C12.7510247,0.323351317 12.7848116,0.372004418 12.81,0.425176608 L23.71,11.3301766 C23.8892795,11.5062357 23.9932437,11.7449948 24,11.9961766 L24,11.9961766 L24,11.9961766 L24,12.0011766 Z M11,22.0011766 L13,22.0011766 L13,17.0011766 L11,17.0011766 L11,22.0011766 L11,22.0011766 Z M12,2.38217661 L2.38,11.9961766 L5,11.9961766 L5,21.9961766 L9,21.9961766 L9,15.9961766 C9,15.4438919 9.44771525,14.9961766 10,14.9961766 L14,14.9961766 C14.5522847,14.9961766 15,15.4438919 15,15.9961766 L15,21.9961766 L19,21.9961766 L19,11.9961766 L21.62,11.9961766 L12,2.38217661 Z" id="house" sketch:type="MSShapeGroup"></path>
            </g>
        </g>
    </g>
</svg>