<?xml version="1.0" encoding="UTF-8" standalone="no"?>
<svg width="80px" height="80px" viewBox="0 0 80 80" version="1.1" xmlns="http://www.w3.org/2000/svg" xmlns:xlink="http://www.w3.org/1999/xlink" xmlns:sketch="http://www.bohemiancoding.com/sketch/ns">
    <!-- Generator: Sketch 3.5.1 (25234) - http://www.bohemiancoding.com/sketch -->
    <title>icon-web</title>
    <desc>Created with Sketch.</desc>
    <defs></defs>
    <g id="web" stroke="none" stroke-width="1" fill="none" fill-rule="evenodd" sketch:type="MSPage">
        <g id="icon-web" sketch:type="MSArtboardGroup">
            <g id="skills-icon-web" sketch:type="MSLayerGroup" transform="translate(7.000000, 15.000000)">
                <g id="Group-2" sketch:type="MSShapeGroup">
                    <g id="Group-6">
                        <path d="M54,30.5151515 C54,35.1818182 50.4,39 46,39 L15,39 C10.6,39 7,35.1818182 7,30.5151515 L7,12.4848485 C7,7.81818182 10.6,4 15,4 L46,4 C50.4,4 54,7.81818182 54,12.4848485 L54,30.5151515 L54,30.5151515 Z" id="Shape" fill="#b22417"></path>
                        <g id="Group-13" fill="#414B50">
                            <path d="M40.5,36 L9.5,36 C4.3,36 0,31.7 0,26.5 L0,9.5 C0,4.3 4.3,0 9.5,0 L40.5,0 C45.7,0 50,4.3 50,9.5 L50,26.5 C50,31.7 45.7,36 40.5,36 L40.5,36 Z M9.5,3 C5.9,3 3,5.9 3,9.5 L3,26.5 C3,30.1 5.9,33 9.5,33 L40.5,33 C44.1,33 47,30.1 47,26.5 L47,9.5 C47,5.9 44.1,3 40.5,3 L9.5,3 L9.5,3 Z" id="Shape"></path>
                            <path d="M41.4,36 L9.1,36 C4.2,36 0.4,32.3 0.4,27.5 C0.4,26.7 1.1,26 1.9,26 L48.6,26 C49.4,26 50.1,26.7 50.1,27.5 C50.1,32.3 46.3,36 41.4,36 L41.4,36 Z M3.6,29 C4.3,31.3 6.4,33 9.1,33 L41.4,33 C44,33 46.2,31.3 46.9,29 L3.6,29 L3.6,29 Z" id="Shape"></path>
                            <path d="M25.5,43.5 C24.7,43.5 24,42.8 24,42 L24,35 C24,34.2 24.7,33.5 25.5,33.5 C26.3,33.5 27,34.2 27,35 L27,42 C27,42.8 26.3,43.5 25.5,43.5 L25.5,43.5 Z" id="Shape"></path>
                            <path d="M33.6,50.6 C32.8,50.6 32.1,49.9 32.1,49.1 C32.1,46.5 29.4,44.4 26,44.4 C22.7,44.4 19.9,46.5 19.9,49.1 C19.9,49.9 19.2,50.6 18.4,50.6 C17.6,50.6 16.9,49.9 16.9,49.1 C16.9,44.8 21,41.4 26,41.4 C31,41.4 35.1,44.9 35.1,49.1 C35.1,49.9 34.5,50.6 33.6,50.6 L33.6,50.6 Z" id="Shape"></path>
                        </g>
                        <g id="Group-10" transform="translate(40.000000, 18.000000)">
                            <path d="M21,25 C21,28.3 18.3,31 15,31 L6,31 C2.7,31 0,28.3 0,25 L0,6 C0,2.7 2.7,0 6,0 L15,0 C18.3,0 21,2.7 21,6 L21,25 L21,25 Z" id="Shape" fill="#b22417"></path>
                            <g id="Group-9" transform="translate(6.000000, 2.000000)">
                                <path d="M15,31 L6,31 C2.7,31 0,28.3 0,25 L0,6 C0,2.7 2.7,0 6,0 L15,0 C18.3,0 21,2.7 21,6 L21,25 C21,28.3 18.3,31 15,31 Z" id="Shape" fill="#b22417"></path>
                                <rect id="Rectangle-path" fill="#b22417" x="0" y="6" width="21" height="18"></rect>
                            </g>
                        </g>
                        <path d="M42.2524662,22 C42.8652325,20.2458126 44.5268897,19 46.5,19 L55.5,19 C57.4731103,19 59.1347675,20.2458126 59.7475338,22 L42.2524662,22 Z M42.0269898,43 C42.2728627,45.2614235 44.1691093,47 46.5,47 L55.5,47 C57.8308907,47 59.7271373,45.2614235 59.9730102,43 L42.0269898,43 Z M55.5,50 L46.5,50 C42.4,50 39,46.6 39,42.5 L39,23.5 C39,19.4 42.4,16 46.5,16 L55.5,16 C59.6,16 63,19.4 63,23.5 L63,42.5 C63,46.6 59.6,50 55.5,50 Z M42,40 L60,40 L60,25 L42,25 L42,40 Z M51.9,21.8 C52.3970563,21.8 52.8,21.3970563 52.8,20.9 C52.8,20.4029437 52.3970563,20 51.9,20 C51.4029437,20 51,20.4029437 51,20.9 C51,21.3970563 51.4029437,21.8 51.9,21.8 Z M53,46 L51,46 C50.4,46 50,45.6 50,45 C50,44.4 50.4,44 51,44 L53,44 C53.6,44 54,44.4 54,45 C54,45.6 53.6,46 53,46 Z" id="Shape" fill="#414B50"></path>
                    </g>
                </g>
            </g>
        </g>
    </g>
</svg>
