<?xml version="1.0" encoding="UTF-8" standalone="no"?>
<svg width="80px" height="80px" viewBox="0 0 80 80" version="1.1" xmlns="http://www.w3.org/2000/svg" xmlns:xlink="http://www.w3.org/1999/xlink" xmlns:sketch="http://www.bohemiancoding.com/sketch/ns">
    <!-- Generator: Sketch 3.5.1 (25234) - http://www.bohemiancoding.com/sketch -->
    <title>icon-strategy</title>
    <desc>Created with Sketch.</desc>
    <defs></defs>
    <g id="web" stroke="none" stroke-width="1" fill="none" fill-rule="evenodd" sketch:type="MSPage">
        <g id="icon-strategy" sketch:type="MSArtboardGroup">
            <g id="skills-icon-strategy" sketch:type="MSLayerGroup" transform="translate(8.000000, 8.000000)">
                <g id="icon" sketch:type="MSShapeGroup">
                    <g id="bullseye">
                        <g id="bg" transform="translate(6.000000, 2.000000)">
                            <ellipse id="Oval" fill="#F7BE3C" cx="29.9" cy="29.9" rx="29.2" ry="29.2"></ellipse>
                            <ellipse id="Oval" fill="#FFDE33" cx="29.9" cy="29.9" rx="19.5" ry="19.5"></ellipse>
                            <ellipse id="Oval" fill="#FFFFFF" cx="29.9" cy="29.9" rx="9.7" ry="9.7"></ellipse>
                        </g>
                        <path d="M29,3.37107098 C14.6338307,4.39573196 3.3,16.372539 3.3,31 C3.3,45.627461 14.6338307,57.604268 29,58.628929 L29,51.8060489 C18.3385064,50.7992774 10,41.8254214 10,30.9 C10,19.9745786 18.3385064,11.0007226 29,9.99395106 L29,3.37107098 Z M32.0000062,58.6822913 C46.8366764,58.1559993 58.7,45.9652432 58.7,31 C58.7,16.0368809 46.7443988,3.84746119 32.0000055,3.31793345 L32,9.92337755 C43.135457,10.445145 52,19.6352324 52,30.9 C51.9029146,42.1619088 43.0400408,51.3501902 32,51.876223 L32,58.6822916 Z M29,13.1112028 C20.0320116,14.1141093 13,21.77572 13,31 C13,40.22428 20.0320116,47.8858907 29,48.8887972 L29,42.023089 C23.7591815,41.0839593 19.8,36.5170814 19.8,31 C19.8,25.4829186 23.7591815,20.9160407 29,19.976911 L29,13.1112028 Z M32,48.9723406 C41.4396691,48.4489624 49,40.5645179 49,31 C48.9033898,21.4355945 41.4332971,13.5512231 32,13.0276778 L32,19.8437281 C37.7289043,20.347231 42.2,25.137084 42.2,31 C42.2,36.7683528 37.7289043,41.6424865 32,42.1554333 L32,48.9723406 Z M29,38.8502751 C25.4538803,37.9484227 22.8,34.7111173 22.8,30.9 C22.8,27.0888827 25.4538803,23.8515773 29,22.9497249 L29,38.8502751 Z M32,39.0385111 C36.03535,38.5392227 39.2,35.0617357 39.2,30.9 C39.2,26.7382643 36.03535,23.2607773 32,22.7614889 L32,39.0385111 Z M31,61.6 C14.1,61.6 0.3,47.8 0.3,30.9 C0.3,14 14.1,0.2 31,0.2 C47.9,0.2 61.7,14 61.7,30.9 C61.7,47.8 47.9,61.6 31,61.6 Z" id="Shape" fill="#414B50"></path>
                    </g>
                </g>
            </g>
        </g>
    </g>
</svg>