<?xml version="1.0" encoding="UTF-8" standalone="no"?>
<svg width="40px" height="40px" viewBox="0 0 40 40" version="1.1" xmlns="http://www.w3.org/2000/svg" xmlns:xlink="http://www.w3.org/1999/xlink" xmlns:sketch="http://www.bohemiancoding.com/sketch/ns">
    <!-- Generator: Sketch 3.5.1 (25234) - http://www.bohemiancoding.com/sketch -->
    <title>icon-contact-white</title>
    <desc>Created with Sketch.</desc>
    <defs></defs>
    <g id="web" stroke="none" stroke-width="1" fill="none" fill-rule="evenodd" sketch:type="MSPage">
        <g id="icon-contact-white" sketch:type="MSArtboardGroup" fill="#FFFFFF">
            <g id="message" sketch:type="MSLayerGroup" transform="translate(8.000000, 8.000000)">
                <path d="M24,24 L18.11,22.527 C13.09915,25.3303892 6.78831288,24.0082451 3.3240905,19.4292963 C-0.140131886,14.8503475 0.30386586,8.41780549 4.36435035,4.35823966 C8.42483484,0.298673829 14.8574771,-0.143868414 19.435642,3.32138996 C24.0138068,6.78664833 25.334523,13.0977844 22.53,18.108 L24,24 Z M19.21,5.755 C15.617457,2.15443496 9.82862011,2.01551706 6.0675025,5.43961226 C2.30638489,8.86370747 1.90283421,14.6401318 5.15131436,18.5539292 C8.39979451,22.4677267 14.1517151,23.1350654 18.21,20.069 L21,21 L20.07,18.208 C22.9302235,14.4237471 22.5632684,9.11015127 19.21,5.755 L19.21,5.755 Z M17.5,14 C16.6715729,14 16,13.3284271 16,12.5 C16,11.6715729 16.6715729,11 17.5,11 C18.3284271,11 19,11.6715729 19,12.5 C19,13.3284271 18.3284271,14 17.5,14 L17.5,14 Z M12.5,14 C11.6715729,14 11,13.3284271 11,12.5 C11,11.6715729 11.6715729,11 12.5,11 C13.3284271,11 14,11.6715729 14,12.5 C14,13.3284271 13.3284271,14 12.5,14 L12.5,14 Z M7.5,14 C6.67157288,14 6,13.3284271 6,12.5 C6,11.6715729 6.67157288,11 7.5,11 C8.32842712,11 9,11.6715729 9,12.5 C9,13.3284271 8.32842712,14 7.5,14 L7.5,14 Z" sketch:type="MSShapeGroup"></path>
            </g>
        </g>
    </g>
</svg>