<?xml version="1.0" encoding="UTF-8" standalone="no"?>
<svg width="60px" height="60px" viewBox="0 0 60 60" version="1.1" xmlns="http://www.w3.org/2000/svg" xmlns:xlink="http://www.w3.org/1999/xlink" xmlns:sketch="http://www.bohemiancoding.com/sketch/ns">
    <!-- Generator: Sketch 3.5.1 (25234) - http://www.bohemiancoding.com/sketch -->
    <title>icon-about</title>
    <desc>Created with Sketch.</desc>
    <defs></defs>
    <g id="web" stroke="none" stroke-width="1" fill="none" fill-rule="evenodd" sketch:type="MSPage">
        <g id="icon-about" sketch:type="MSArtboardGroup">
            <g sketch:type="MSLayerGroup">
                <rect id="Rectangle-48" fill-opacity="0" fill="#FFFFFF" sketch:type="MSShapeGroup" x="0" y="0" width="60" height="60" rx="6"></rect>
                <g id="info" transform="translate(18.000000, 19.000000)" fill="#414B50" sketch:type="MSShapeGroup">
                    <path d="M12,24 C5.372583,24 -5.68434189e-14,18.627417 -5.68434189e-14,12 C-5.68434189e-14,5.372583 5.372583,0 12,0 C18.627417,0 24,5.372583 24,12 C24,18.627417 18.627417,24 12,24 L12,24 Z M12,2 C6.4771525,2 2,6.4771525 2,12 C2,17.5228475 6.4771525,22 12,22 C17.5228475,22 22,17.5228475 22,12 C22,9.3478351 20.9464316,6.80429597 19.0710678,4.92893219 C17.195704,3.0535684 14.6521649,2 12,2 L12,2 Z M12,18 C11.4504509,17.9961531 11.0069865,17.5495626 11.007,17 L11.007,11.01 C10.9955048,10.6479012 11.1821199,10.3082784 11.4939309,10.1238291 C11.8057419,9.93937973 12.1932581,9.93937973 12.5050691,10.1238291 C12.8168801,10.3082784 13.0034952,10.6479012 12.992,11.01 L12.992,17 C12.993596,17.264317 12.8898509,17.5183849 12.7036993,17.7060377 C12.5175477,17.8936906 12.2643213,17.999473 12,18 L12,18 Z M12,8 C11.5986827,8.00040455 11.2366567,7.75896818 11.0827988,7.38831539 C10.9289409,7.0176626 11.0135652,6.59082179 11.2971964,6.3069044 C11.5808276,6.022987 12.0075829,5.93793225 12.3783906,6.09141622 C12.7491984,6.2449002 12.9909998,6.6066825 12.991,7.008 C12.9899018,7.55502088 12.5470195,7.99835013 12,8 L12,8 Z M12.992,7 L12.992,7.01 C12.991903,7.00833474 12.991903,7.00666526 12.992,7.005 C12.992097,7.00333474 12.992,7 12.992,7 L12.992,7 Z"></path>
                </g>
            </g>
        </g>
    </g>
</svg>