<?xml version="1.0" encoding="UTF-8" standalone="no"?>
<svg width="80px" height="80px" viewBox="0 0 80 80" version="1.1" xmlns="http://www.w3.org/2000/svg" xmlns:xlink="http://www.w3.org/1999/xlink" xmlns:sketch="http://www.bohemiancoding.com/sketch/ns">
    <!-- Generator: Sketch 3.5.1 (25234) - http://www.bohemiancoding.com/sketch -->
    <title>icon-design</title>
    <desc>Created with Sketch.</desc>
    <defs></defs>
    <g id="web" stroke="none" stroke-width="1" fill="none" fill-rule="evenodd" sketch:type="MSPage">
        <g id="icon-design" sketch:type="MSArtboardGroup">
            <g id="skills-icon-graphics" sketch:type="MSLayerGroup" transform="translate(17.000000, 8.000000)">
                <path d="M20.8,45.7 C22.7,50.5 27.9,59.6 40.7,62.4 C42.1,62.7 43.6,62.2 44.6,61.2 L44.6,61.2 C46.8,59 46,55.3 43.1,54.2 C35.5,51.3 31.3,46 29,41.8 C27.5,39.1 23.9,38.6 21.7,40.7 L21.7,40.7 C20.5,42 20.1,44 20.8,45.7 L20.8,45.7 Z" id="Shape" fill="#b22417" sketch:type="MSShapeGroup"></path>
                <path d="M21.3,24.6 C18.9,21.2 17.1,18.3 15.8,15.7 C10.6,6 12.1,2.4 12.1,2.4 C12.1,2.4 6.4,17.6 6.4,23.7 C6.4,26.9 6.8,29 7.8,31.8 C8.8,34.4 11.8,36.3 15.5,36.3 C19.9,36.3 23.5,33.5 23.5,30 C23.5,28.6 22.3,26.1 21.3,24.6 Z M13.2,48.2 C12.3,46.9 11.6,45.8 11.1,44.9 C9.2,41.3 9.7,39.9 9.7,39.9 C9.7,39.9 7.6,45.6 7.6,47.9 C7.6,49.1 7.7,49.9 8.1,50.9 C8.5,51.9 9.6,52.6 11,52.6 C12.7,52.6 14,51.5 14,50.2 C14,49.6 13.6,48.7 13.2,48.2 Z" id="Shape" fill="#b22417" sketch:type="MSShapeGroup"></path>
                <path d="M11.5,37.9 C7.3,37.9 3.7,35.7 2.4,32.4 C1.3,29.5 0.9,27.1 0.9,23.8 C0.9,17.7 6.1,3.6 6.6,2 L6.6,2 L6.6,2 L6.6,2 C6.6,2 6.6,2 6.6,1.9 C6.9,1.1 7.8,0.8 8.5,1.1 C9.3,1.4 9.6,2.3 9.4,3 L9.4,3 C9.4,3.2 8.4,6.5 13,15 C14.4,17.7 16.3,20.6 18.4,23.7 C19.3,25 20.9,27.9 20.9,30 C21,34.4 16.8,37.9 11.5,37.9 L11.5,37.9 Z M7.3,9.3 C5.7,14.1 3.9,20.4 3.9,23.7 C3.9,26.7 4.2,28.7 5.2,31.3 C6,33.4 8.6,34.9 11.5,34.9 C15.1,34.9 18,32.7 18,30.1 C18,29.2 17.1,27.1 16,25.5 C13.7,22.3 11.9,19.3 10.4,16.5 C8.9,13.6 7.9,11.2 7.3,9.3 Z M37.6,63.9 C37.2,63.9 36.8,63.9 36.4,63.8 C23.1,61 17.5,51.6 15.4,46.2 C14.5,43.9 15,41.3 16.8,39.6 C18,38.4 19.5,37.8 21.1,37.8 C23.3,37.8 25.4,39 26.5,41 C28.6,44.8 32.5,49.9 39.8,52.7 C41.6,53.4 42.9,54.9 43.4,56.9 C43.8,58.8 43.2,60.8 41.8,62.2 C40.6,63.3 39.1,63.9 37.6,63.9 Z M21.1,40.8 C20.3,40.8 19.5,41.1 18.9,41.7 C18,42.6 17.7,43.9 18.2,45.1 C20.1,49.9 25.1,58.3 37,60.9 C37.9,61.1 38.9,60.8 39.6,60.1 C40.3,59.4 40.6,58.4 40.4,57.5 C40.2,56.6 39.6,55.8 38.7,55.5 C30.6,52.4 26.2,46.7 23.8,42.4 C23.3,41.5 22.3,40.8 21.1,40.8 Z" id="Shape" fill="#414B50" sketch:type="MSShapeGroup"></path>
                <g id="paint"></g>
            </g>
        </g>
    </g>
</svg>
