<?xml version="1.0" encoding="UTF-8" standalone="no"?>
<svg width="60px" height="60px" viewBox="0 0 60 60" version="1.1" xmlns="http://www.w3.org/2000/svg" xmlns:xlink="http://www.w3.org/1999/xlink" xmlns:sketch="http://www.bohemiancoding.com/sketch/ns">
    <!-- Generator: Sketch 3.5.1 (25234) - http://www.bohemiancoding.com/sketch -->
    <title>icon-grid</title>
    <desc>Created with Sketch.</desc>
    <defs></defs>
    <g id="web" stroke="none" stroke-width="1" fill="none" fill-rule="evenodd" sketch:type="MSPage">
        <g id="icon-grid" sketch:type="MSArtboardGroup">
            <g id="icon-work" sketch:type="MSLayerGroup">
                <rect id="Rectangle-48" fill-opacity="0" fill="#FFFFFF" sketch:type="MSShapeGroup" x="0" y="0" width="60" height="60" rx="6"></rect>
                <path d="M40,42 L34,42 C32.8954305,42 32,41.1045695 32,40 L32,34 C32,32.8954305 32.8954305,32 34,32 L40,32 C41.1045695,32 42,32.8954305 42,34 L42,40 C42,41.1045695 41.1045695,42 40,42 L40,42 Z M40,34 L34,34 L34,40 L40,40 L40,34 L40,34 Z M40,28 L34,28 C32.8954305,28 32,27.1045695 32,26 L32,20 C32,18.8954305 32.8954305,18 34,18 L40,18 C41.1045695,18 42,18.8954305 42,20 L42,26 C42,27.1045695 41.1045695,28 40,28 L40,28 Z M40,20 L34,20 L34,26 L40,26 L40,20 L40,20 Z M26,42 L20,42 C18.8954305,42 18,41.1045695 18,40 L18,34 C18,32.8954305 18.8954305,32 20,32 L26,32 C27.1045695,32 28,32.8954305 28,34 L28,40 C28,41.1045695 27.1045695,42 26,42 L26,42 Z M26,34 L20,34 L20,40 L26,40 L26,34 L26,34 Z M26,28 L20,28 C18.8954305,28 18,27.1045695 18,26 L18,20 C18,18.8954305 18.8954305,18 20,18 L26,18 C27.1045695,18 28,18.8954305 28,20 L28,26 C28,27.1045695 27.1045695,28 26,28 L26,28 Z M26,20 L20,20 L20,26 L26,26 L26,20 L26,20 Z" id="grid" fill="#414B50" sketch:type="MSShapeGroup"></path>
            </g>
        </g>
    </g>
</svg>