<?xml version="1.0" encoding="UTF-8" standalone="no"?>
<svg width="80px" height="80px" viewBox="0 0 80 80" version="1.1" xmlns="http://www.w3.org/2000/svg" xmlns:xlink="http://www.w3.org/1999/xlink" xmlns:sketch="http://www.bohemiancoding.com/sketch/ns">
    <!-- Generator: Sketch 3.5.1 (25234) - http://www.bohemiancoding.com/sketch -->
    <title>icon-interaction</title>
    <desc>Created with Sketch.</desc>
    <defs></defs>
    <g id="web" stroke="none" stroke-width="1" fill="none" fill-rule="evenodd" sketch:type="MSPage">
        <g id="icon-interaction" sketch:type="MSArtboardGroup">
            <g id="skills-icon-interaction" sketch:type="MSLayerGroup" transform="translate(8.000000, 17.000000)">
                <g id="vector" sketch:type="MSShapeGroup">
                    <g id="colors" transform="translate(3.000000, 3.000000)">
                        <path d="M55.7,36.9 C54.9,36.9 54.2,36.2 54.2,35.4 C54.2,21.4 42.8,10.1 28.9,10.1 C14.9,10.1 3.6,21.5 3.6,35.4 C3.6,36.2 2.9,36.9 2.1,36.9 C1.3,36.9 0.6,36.2 0.6,35.4 C0.6,19.8 13.3,7.1 28.9,7.1 C44.5,7.1 57.2,19.8 57.2,35.4 C57.2,36.2 56.5,36.9 55.7,36.9 Z M24,5 L8,5 C7.2,5 6.5,4.3 6.5,3.5 C6.5,2.7 7.2,2 8,2 L24,2 C24.8,2 25.5,2.7 25.5,3.5 C25.5,4.3 24.8,5 24,5 Z M48,5 L33,5 C32.2,5 31.5,4.3 31.5,3.5 C31.5,2.7 32.2,2 33,2 L48,2 C48.8,2 49.5,2.7 49.5,3.5 C49.5,4.3 48.8,5 48,5 Z" id="Shape" fill="#F7BE3C"></path>
                        <path d="M31.2,8 C33.409139,8 35.2,6.209139 35.2,4 C35.2,1.790861 33.409139,0 31.2,0 C28.990861,0 27.2,1.790861 27.2,4 C27.2,6.209139 28.990861,8 31.2,8 Z M55,37 L61,37 L61,43 L55,43 L55,37 Z M52,2 L58,2 L58,9 L52,9 L52,2 Z M4,2 L10,2 L10,9 L4,9 L4,2 Z M1,37 L7,37 L7,43 L1,43 L1,37 Z" id="Oval" fill="#FFDE33"></path>
                    </g>
                    <g id="lines" fill="#414B50">
                        <path d="M31.2,11.5 C28.1,11.5 25.7,9 25.7,6 C25.7,3 28.2,0.5 31.2,0.5 C34.2,0.5 36.7,3 36.7,6 C36.7,9 34.2,11.5 31.2,11.5 L31.2,11.5 Z M31.2,3.5 C29.8,3.5 28.7,4.6 28.7,6 C28.7,7.4 29.8,8.5 31.2,8.5 C32.6,8.5 33.7,7.4 33.7,6 C33.7,4.6 32.6,3.5 31.2,3.5 Z M61.5,46 L55.5,46 C54.7,46 54,45.3 54,44.5 L54,38.5 C54,37.7 54.7,37 55.5,37 L61.5,37 C62.3,37 63,37.7 63,38.5 L63,44.5 C63,45.3 62.3,46 61.5,46 Z M57,43 L60,43 L60,40 L57,40 L57,43 Z M58.5,12 L52.5,12 C51.7,12 51,11.3 51,10.5 L51,3.5 C51,2.7 51.7,2 52.5,2 L58.5,2 C59.3,2 60,2.7 60,3.5 L60,10.5 C60,11.3 59.3,12 58.5,12 Z M54,9 L57,9 L57,5 L54,5 L54,9 Z M10.5,12 L4.5,12 C3.7,12 3,11.3 3,10.5 L3,3.5 C3,2.7 3.7,2 4.5,2 L10.5,2 C11.3,2 12,2.7 12,3.5 L12,10.5 C12,11.3 11.3,12 10.5,12 Z M6,9 L9,9 L9,5 L6,5 L6,9 Z M7.5,46 L1.5,46 C0.7,46 0,45.3 0,44.5 L0,38.5 C0,37.7 0.7,37 1.5,37 L7.5,37 C8.3,37 9,37.7 9,38.5 L9,44.5 C9,45.3 8.3,46 7.5,46 Z M3,43 L6,43 L6,40 L3,40 L3,43 Z" id="Shape"></path>
                    </g>
                </g>
            </g>
        </g>
    </g>
</svg>