<?xml version="1.0" encoding="UTF-8" standalone="no"?>
<svg width="200px" height="60px" viewBox="0 0 200 60" version="1.1" xmlns="http://www.w3.org/2000/svg" xmlns:xlink="http://www.w3.org/1999/xlink" xmlns:sketch="http://www.bohemiancoding.com/sketch/ns">
    <!-- Generator: Sketch 3.5.1 (25234) - http://www.bohemiancoding.com/sketch -->
    <title>logo</title>
    <desc>Created with Sketch.</desc>
    <defs></defs>
    <g id="Page-2" stroke="none" stroke-width="1" fill="none" fill-rule="evenodd" sketch:type="MSPage">
        <g id="logo" sketch:type="MSArtboardGroup">
            <g id="icon-close" sketch:type="MSLayerGroup">
                <rect id="Rectangle-48" opacity="0" fill="#FFFFFF" sketch:type="MSShapeGroup" x="0" y="0" width="200" height="60" rx="12"></rect>
                <g id="logo" transform="translate(4.000000, 4.000000)" fill="#414B50" sketch:type="MSShapeGroup">
                    <g id="Group-10">
                        <g id="Group-9" transform="translate(0.014630, 0.218541)">
                            <path d="M25.98537,50.7814587 C39.7924887,50.7814587 50.98537,39.5885774 50.98537,25.7814587 C50.98537,11.9743399 39.7924887,0.781458654 25.98537,0.781458654 C12.1782512,0.781458654 0.985369992,11.9743399 0.985369992,25.7814587 C0.985369992,39.5885774 12.1782512,50.7814587 25.98537,50.7814587 Z M13.0185749,30.6976431 C9.4775277,30.6976431 7.77763254,32.7246748 7.77763254,34.7971185 C7.77763254,36.8696802 9.6190252,38.4358674 12.1213411,38.4358674 C14.8128017,38.4358674 17.4566152,36.5014293 19.4870321,32.2638303 C17.3147567,31.3889688 15.095917,30.6976431 13.0185749,30.6976431 Z M27.6775236,46.3257799 L31.1333835,37.977146 C28.9171909,36.9629815 26.4171611,35.5812737 24.2472921,34.4756951 C22.006554,38.5295225 18.9986492,42.0838166 14.1001404,42.880003 C17.474543,45.1002426 21.5389866,46.3967879 25.913738,46.3967879 C26.5078831,46.3967879 27.0957715,46.3728434 27.6775236,46.3257799 Z M13.167051,22.7729343 C10.1229296,22.7729343 7.34195018,21.2549902 5.96030407,18.7428156 C5.29673373,20.5535204 5.11420676,22.4819429 4.75324375,24.4855018 L4.75324375,26.9515565 C4.75324375,27.7668514 4.91002202,28.5704689 5.05260241,29.3572191 C6.80977037,27.4624133 9.56536203,26.2769802 13.0652594,26.2769802 C15.9447817,26.2769802 18.6861755,27.0610174 21.2825825,28.2133056 L27.8457324,12.2151485 C22.936515,12.2151485 18.9722989,10.6937837 15.4319736,10.6937837 C11.0418211,10.6937837 9.76822325,13.0448338 9.76822325,15.0270431 C9.76822325,17.3785649 11.5624501,18.3467276 13.261503,18.3467276 C15.3384842,18.3467276 16.8018283,16.9172486 16.8018283,16.9172486 L19.2092109,20.4214125 C19.2092109,20.4214125 17.0380184,22.7729343 13.167051,22.7729343 Z M32.5270617,6.05809153 C30.4459896,5.3894129 28.223059,5.02741347 25.9139786,5.02741347 C23.190994,5.02729552 20.58821,5.52989557 18.1973113,6.44651255 C22.3891748,7.0138691 26.7729263,8.98890288 32.5270617,6.05809153 Z M33.5189881,12.6743417 L26.0590858,30.5971467 C27.9004784,31.6113113 30.6386235,33.1309068 32.716086,34.1911912 L41.8652953,12.0725427 C40.5410423,10.6004825 39.0059869,9.31372729 37.3068137,8.25662763 C36.3606729,8.00935768 34.7564896,9.6937736 33.5189881,12.6743417 Z M37.7473089,36.1298756 C40.8541175,36.6605486 43.0351764,36.2869897 45.8918377,32.6266554 C46.6782558,30.4639771 47.1062376,28.1353383 47.1062376,25.7097416 C47.1062376,22.8309675 46.5030684,20.0892553 45.4142836,17.5984303 L37.7473089,36.1298756 Z M36.144994,39.8572076 L34.1077188,44.7923838 C36.7615189,43.7044983 39.1414683,42.103043 41.116658,40.1165874 C39.6785813,40.3992041 38.0559322,40.3175803 36.144994,39.8572076 Z" id="Oval-18"></path>
                        </g>
                    </g>
                </g>
            </g>
            <path d="M65.175,15.3 L65.175,13.525 L60.85,13.525 L60.85,30.85 L65.175,30.85 L65.175,25.2 C66.125,26.45 67.55,27.15 69.3,27.15 C73.075,27.15 75.525,24.425 75.525,20.325 C75.525,16.15 73,13.375 69.2,13.375 C67.5,13.375 66.125,14.075 65.175,15.3 Z M68.15,23.725 C66.4,23.725 65.175,22.3 65.175,20.2 C65.175,18.15 66.4,16.7 68.15,16.7 C69.95,16.7 71.175,18.15 71.175,20.2 C71.175,22.275 69.95,23.725 68.15,23.725 L68.15,23.725 Z M76.725,20.3 C76.725,24.4 79.475,27.15 83.875,27.15 C86.35,27.15 88.375,26.275 89.75,24.775 L87.475,22.55 C86.575,23.45 85.425,23.925 84.25,23.925 C82.65,23.925 81.5,23.025 81.075,21.425 L90.55,21.425 C90.85,16.5 88.5,13.375 83.75,13.375 C79.575,13.375 76.725,16.125 76.725,20.3 Z M81,19.1 C81.275,17.475 82.3,16.375 83.8,16.375 C85.35,16.375 86.4,17.45 86.4,19.1 L81,19.1 Z M100.75,23.275 C100.1,23.55 99.525,23.725 99.075,23.725 C98.275,23.75 97.825,23.3 97.825,22.25 L97.825,16.975 L101.35,16.975 L101.35,14.125 L97.825,14.125 L97.825,10.4 L93.525,10.4 L93.525,14.15 L91.65,14.15 L91.65,16.975 L93.525,16.975 L93.525,22.925 C93.525,25.725 95.4,27.2 98,27.2 C99.3,27.2 100.625,26.85 101.6,26.275 L100.75,23.275 Z M109.6,13.375 C105.425,13.375 102.575,16.125 102.575,20.3 C102.575,24.4 105.325,27.15 109.725,27.15 C112.2,27.15 114.225,26.275 115.6,24.775 L113.325,22.55 C112.425,23.45 111.275,23.925 110.1,23.925 C108.5,23.925 107.35,23.025 106.925,21.425 L116.4,21.425 C116.7,16.5 114.35,13.375 109.6,13.375 L109.6,13.375 Z M106.85,19.1 C107.125,17.475 108.15,16.375 109.65,16.375 C111.2,16.375 112.25,17.45 112.25,19.1 L106.85,19.1 Z M123.075,13.525 L118.75,13.525 L118.75,27 L123.075,27 L123.075,20.075 C123.3,18.175 124.95,17 127.45,17.225 L127.45,13.325 C125.525,13.35 124,14.225 123.075,15.8 L123.075,13.525 Z M65.175,38.75 L65.175,32.45 L60.85,32.45 L60.85,50 L65.175,50 L65.175,43.35 C65.175,41.5 66.225,40.15 67.925,40.15 C69.4,40.15 70.3,41.125 70.3,42.7 L70.3,50 L74.625,50 L74.625,41.5 C74.625,38.35 72.675,36.325 69.7,36.325 C67.7,36.35 66.125,37.15 65.175,38.75 Z M83.925,36.375 C79.5,36.375 76.55,39.1 76.55,43.25 C76.55,47.4 79.5,50.15 83.925,50.15 C88.325,50.15 91.275,47.4 91.275,43.25 C91.275,39.1 88.325,36.375 83.925,36.375 L83.925,36.375 Z M83.925,39.8 C85.7,39.8 86.925,41.225 86.925,43.3 C86.925,45.4 85.7,46.8 83.925,46.8 C82.125,46.8 80.9,45.4 80.9,43.3 C80.9,41.225 82.125,39.8 83.925,39.8 L83.925,39.8 Z M97.925,36.525 L93.6,36.525 L93.6,50 L97.925,50 L97.925,43.075 C98.15,41.175 99.8,40 102.3,40.225 L102.3,36.325 C100.375,36.35 98.85,37.225 97.925,38.8 L97.925,36.525 Z M108.6,36.525 L104.275,36.525 L104.275,50 L108.6,50 L108.6,43.075 C108.825,41.175 110.475,40 112.975,40.225 L112.975,36.325 C111.05,36.35 109.525,37.225 108.6,38.8 L108.6,36.525 Z M120.85,36.375 C116.675,36.375 113.825,39.125 113.825,43.3 C113.825,47.4 116.575,50.15 120.975,50.15 C123.45,50.15 125.475,49.275 126.85,47.775 L124.575,45.55 C123.675,46.45 122.525,46.925 121.35,46.925 C119.75,46.925 118.6,46.025 118.175,44.425 L127.65,44.425 C127.95,39.5 125.6,36.375 120.85,36.375 L120.85,36.375 Z M118.1,42.1 C118.375,40.475 119.4,39.375 120.9,39.375 C122.45,39.375 123.5,40.45 123.5,42.1 L118.1,42.1 Z M137.2,50 L142.275,36.525 L137.975,36.525 L135.05,46.05 L132.15,36.525 L127.7,36.525 L132.775,50 L137.2,50 Z M149.625,36.375 C145.2,36.375 142.25,39.1 142.25,43.25 C142.25,47.4 145.2,50.15 149.625,50.15 C154.025,50.15 156.975,47.4 156.975,43.25 C156.975,39.1 154.025,36.375 149.625,36.375 L149.625,36.375 Z M149.625,39.8 C151.4,39.8 152.625,41.225 152.625,43.3 C152.625,45.4 151.4,46.8 149.625,46.8 C147.825,46.8 146.6,45.4 146.6,43.3 C146.6,41.225 147.825,39.8 149.625,39.8 L149.625,39.8 Z M163.625,36.525 L159.3,36.525 L159.3,50 L163.625,50 L163.625,43.075 C163.85,41.175 165.5,40 168,40.225 L168,36.325 C166.075,36.35 164.55,37.225 163.625,38.8 L163.625,36.525 Z M177.825,46.275 C177.175,46.55 176.6,46.725 176.15,46.725 C175.35,46.75 174.9,46.3 174.9,45.25 L174.9,39.975 L178.425,39.975 L178.425,37.125 L174.9,37.125 L174.9,33.4 L170.6,33.4 L170.6,37.15 L168.725,37.15 L168.725,39.975 L170.6,39.975 L170.6,45.925 C170.6,48.725 172.475,50.2 175.075,50.2 C176.375,50.2 177.7,49.85 178.675,49.275 L177.825,46.275 Z M185.675,36.325 C182.55,36.325 180.2,37.825 180.2,40.6 C180.175,45.325 187.15,44.3 187.15,46.275 C187.15,46.9 186.525,47.2 185.675,47.2 C184.175,47.2 182.425,46.6 180.9,45.525 L179.525,48.275 C181.15,49.525 183.325,50.175 185.575,50.175 C188.825,50.175 191.25,48.65 191.25,45.875 C191.275,41.175 184.175,42.075 184.175,40.225 C184.175,39.6 184.725,39.3 185.5,39.3 C186.625,39.3 188.125,39.775 189.75,40.65 L191.225,37.85 C189.575,36.875 187.625,36.325 185.675,36.325 L185.675,36.325 Z" id="peter" fill="#414B50" sketch:type="MSShapeGroup"></path>
        </g>
    </g>
</svg>