<?xml version="1.0" encoding="UTF-8" standalone="no"?>
<svg width="200px" height="60px" viewBox="0 0 200 60" version="1.1" xmlns="http://www.w3.org/2000/svg" xmlns:xlink="http://www.w3.org/1999/xlink" xmlns:sketch="http://www.bohemiancoding.com/sketch/ns">
    <!-- Generator: Sketch 3.5.1 (25234) - http://www.bohemiancoding.com/sketch -->
    <title>logo-gold</title>
    <desc>Created with Sketch.</desc>
    <defs></defs>
    <g id="web" stroke="none" stroke-width="1" fill="none" fill-rule="evenodd" sketch:type="MSPage">
        <g id="logo-gold" sketch:type="MSArtboardGroup">
            <g sketch:type="MSLayerGroup">
                <rect id="bg" opacity="0" sketch:type="MSShapeGroup" x="0" y="0" width="200" height="60"></rect>
                <g id="logo-ph-black" transform="translate(5.000000, 5.000000)" sketch:type="MSShapeGroup">
                    <path d="M25,50 C38.8071187,50 50,38.8071187 50,25 C50,11.1928813 38.8071187,0 25,0 C11.1928813,0 0,11.1928813 0,25 C0,38.8071187 11.1928813,50 25,50 Z M12.0332049,29.9161845 C8.49215771,29.9161845 6.79226254,31.9432161 6.79226254,34.0156599 C6.79226254,36.0882216 8.63365521,37.6544087 11.1359712,37.6544087 C13.8274317,37.6544087 16.4712452,35.7199706 18.5016621,31.4823716 C16.3293867,30.6075102 14.110547,29.9161845 12.0332049,29.9161845 Z M26.6921536,45.5443212 L30.1480135,37.1956874 C27.9318209,36.1815228 25.4317911,34.799815 23.2619221,33.6942365 C21.021184,37.7480638 18.0132792,41.302358 13.1147704,42.0985444 C16.489173,44.3187839 20.5536166,45.6153293 24.928368,45.6153293 C25.5225131,45.6153293 26.1104015,45.5913847 26.6921536,45.5443212 Z M12.181681,21.9914757 C9.13755958,21.9914757 6.35658018,20.4735315 4.97493408,17.9613569 C4.31136374,19.7720618 4.12883677,21.7004843 3.76787376,23.7040431 L3.76787376,26.1700979 C3.76787376,26.9853928 3.92465203,27.7890103 4.06723242,28.5757604 C5.82440038,26.6809547 8.57999204,25.4955216 12.0798894,25.4955216 C14.9594117,25.4955216 17.7008055,26.2795588 20.2972125,27.4318469 L26.8603624,11.4336899 C21.951145,11.4336899 17.9869289,9.91232509 14.4466036,9.91232509 C10.0564511,9.91232509 8.78285326,12.2633751 8.78285326,14.2455844 C8.78285326,16.5971063 10.5770801,17.5652689 12.276133,17.5652689 C14.3531142,17.5652689 15.8164583,16.1357899 15.8164583,16.1357899 L18.2238409,19.6399538 C18.2238409,19.6399538 16.0526484,21.9914757 12.181681,21.9914757 Z M31.5416917,5.27663288 C29.4606196,4.60795424 27.237689,4.24595482 24.9286086,4.24595482 C22.205624,4.24583686 19.60284,4.74843691 17.2119413,5.6650539 C21.4038048,6.23241044 25.7875563,8.20744423 31.5416917,5.27663288 Z M32.5336181,11.892883 L25.0737158,29.815688 C26.9151084,30.8298526 29.6532536,32.3494481 31.730716,33.4097325 L40.8799253,11.2910841 C39.5556723,9.81902384 38.0206169,8.53226863 36.3214437,7.47516897 C35.3753029,7.22789903 33.7711196,8.91231495 32.5336181,11.892883 Z M36.7619389,35.348417 C39.8687475,35.8790899 42.0498064,35.5055311 44.9064677,31.8451967 C45.6928858,29.6825185 46.1208676,27.3538796 46.1208676,24.928283 C46.1208676,22.0495088 45.5176984,19.3077966 44.4289136,16.8169717 L36.7619389,35.348417 Z M35.159624,39.0757489 L33.1223488,44.0109252 C35.7761489,42.9230396 38.1560984,41.3215844 40.131288,39.3351288 C38.6932113,39.6177455 37.0705622,39.5361216 35.159624,39.0757489 Z" id="Oval-18" fill="#FFDE33"></path>
                    <path d="M68.6831592,10.7427699 L68.6831592,9.16962368 L64.85,9.16962368 L64.85,24.5244173 L68.6831592,24.5244173 L68.6831592,19.5169377 C69.5251248,20.6247872 70.7880732,21.2451829 72.3390624,21.2451829 C75.6847678,21.2451829 77.8561528,18.8300711 77.8561528,15.1963248 C77.8561528,11.4961076 75.6182969,9.03668174 72.2504345,9.03668174 C70.7437592,9.03668174 69.5251248,9.65707744 68.6831592,10.7427699 Z M71.3198409,18.2096754 C69.7688517,18.2096754 68.6831592,16.946727 68.6831592,15.0855399 C68.6831592,13.2686667 69.7688517,11.9835613 71.3198409,11.9835613 C72.9151441,11.9835613 74.0008366,13.2686667 74.0008366,15.0855399 C74.0008366,16.92457 72.9151441,18.2096754 71.3198409,18.2096754 L71.3198409,18.2096754 Z M78.9196883,15.1741678 C78.9196883,18.8079141 81.3569571,21.2451829 85.2565873,21.2451829 C87.4501292,21.2451829 89.2448453,20.4696883 90.4634798,19.1402689 L88.4471937,17.1682969 C87.6495421,17.9659485 86.6303206,18.3869313 85.5889421,18.3869313 C84.1708948,18.3869313 83.1516733,17.5892797 82.7750044,16.1712323 L91.1725034,16.1712323 C91.4383873,11.8063054 89.3556303,9.03668174 85.1458023,9.03668174 C81.4455851,9.03668174 78.9196883,11.4739506 78.9196883,15.1741678 Z M82.7085335,14.1106323 C82.9522604,12.670428 83.8606969,11.6955205 85.1901163,11.6955205 C86.5638496,11.6955205 87.4944432,12.648271 87.4944432,14.1106323 L82.7085335,14.1106323 Z M100.212555,17.8108495 C99.6364734,18.0545764 99.1268626,18.2096754 98.7280368,18.2096754 C98.0190132,18.2318323 97.6201873,17.8330065 97.6201873,16.902413 L97.6201873,12.2272882 L100.744323,12.2272882 L100.744323,9.70139142 L97.6201873,9.70139142 L97.6201873,6.4 L93.8091852,6.4 L93.8091852,9.72354841 L92.147411,9.72354841 L92.147411,12.2272882 L93.8091852,12.2272882 L93.8091852,17.5006517 C93.8091852,19.9822345 95.4709594,21.2894969 97.7752863,21.2894969 C98.9274497,21.2894969 100.10177,20.979299 100.965893,20.4696883 L100.212555,17.8108495 Z M108.056129,9.03668174 C104.355912,9.03668174 101.830015,11.4739506 101.830015,15.1741678 C101.830015,18.8079141 104.267284,21.2451829 108.166914,21.2451829 C110.360456,21.2451829 112.155172,20.4696883 113.373807,19.1402689 L111.357521,17.1682969 C110.559869,17.9659485 109.540648,18.3869313 108.499269,18.3869313 C107.081222,18.3869313 106.062,17.5892797 105.685331,16.1712323 L114.08283,16.1712323 C114.348714,11.8063054 112.265957,9.03668174 108.056129,9.03668174 L108.056129,9.03668174 Z M105.618861,14.1106323 C105.862587,12.670428 106.771024,11.6955205 108.100443,11.6955205 C109.474177,11.6955205 110.40477,12.648271 110.40477,14.1106323 L105.618861,14.1106323 Z M119.998747,9.16962368 L116.165587,9.16962368 L116.165587,21.112241 L119.998747,21.112241 L119.998747,14.9747549 C120.19816,13.2908237 121.660521,12.2494452 123.87622,12.4488581 L123.87622,8.99236776 C122.170132,9.01452475 120.818555,9.79001938 119.998747,11.1859097 L119.998747,9.16962368 Z M68.6831592,31.526026 L68.6831592,25.9424647 L64.85,25.9424647 L64.85,41.4966712 L68.6831592,41.4966712 L68.6831592,35.6029121 C68.6831592,33.9632948 69.6137527,32.7668174 71.120428,32.7668174 C72.4276904,32.7668174 73.225342,33.63094 73.225342,35.0268303 L73.225342,41.4966712 L77.0585012,41.4966712 L77.0585012,33.9632948 C77.0585012,31.1715142 75.330256,29.376798 72.6935743,29.376798 C70.9210151,29.398955 69.5251248,30.1079787 68.6831592,31.526026 Z M85.3009012,29.421112 C81.3791141,29.421112 78.7645894,31.8362239 78.7645894,35.5142841 C78.7645894,39.1923443 81.3791141,41.6296132 85.3009012,41.6296132 C89.2005314,41.6296132 91.8150561,39.1923443 91.8150561,35.5142841 C91.8150561,31.8362239 89.2005314,29.421112 85.3009012,29.421112 L85.3009012,29.421112 Z M85.3009012,32.4566196 C86.8740475,32.4566196 87.95974,33.719568 87.95974,35.5585981 C87.95974,37.4197852 86.8740475,38.6605766 85.3009012,38.6605766 C83.705598,38.6605766 82.6199055,37.4197852 82.6199055,35.5585981 C82.6199055,33.719568 83.705598,32.4566196 85.3009012,32.4566196 L85.3009012,32.4566196 Z M97.7088153,29.5540539 L93.8756561,29.5540539 L93.8756561,41.4966712 L97.7088153,41.4966712 L97.7088153,35.3591852 C97.9082282,33.675254 99.3705895,32.6338755 101.586288,32.8332884 L101.586288,29.376798 C99.8802003,29.398955 98.5286239,30.1744496 97.7088153,31.57034 L97.7088153,29.5540539 Z M107.16985,29.5540539 L103.336691,29.5540539 L103.336691,41.4966712 L107.16985,41.4966712 L107.16985,35.3591852 C107.369263,33.675254 108.831624,32.6338755 111.047323,32.8332884 L111.047323,29.376798 C109.341235,29.398955 107.989658,30.1744496 107.16985,31.57034 L107.16985,29.5540539 Z M118.026775,29.421112 C114.326557,29.421112 111.800661,31.8583808 111.800661,35.5585981 C111.800661,39.1923443 114.237929,41.6296132 118.13756,41.6296132 C120.331101,41.6296132 122.125818,40.8541185 123.344452,39.5246992 L121.328166,37.5527271 C120.530514,38.3503787 119.511293,38.7713615 118.469914,38.7713615 C117.051867,38.7713615 116.032646,37.9737099 115.655977,36.5556626 L124.053476,36.5556626 C124.31936,32.1907357 122.236603,29.421112 118.026775,29.421112 L118.026775,29.421112 Z M115.589506,34.4950626 C115.833233,33.0548583 116.741669,32.0799507 118.071089,32.0799507 C119.444822,32.0799507 120.375415,33.0327013 120.375415,34.4950626 L115.589506,34.4950626 Z M132.517446,41.4966712 L137.015315,29.5540539 L133.204312,29.5540539 L130.611945,37.9958669 L128.041734,29.5540539 L124.09779,29.5540539 L128.595659,41.4966712 L132.517446,41.4966712 Z M143.529469,29.421112 C139.607682,29.421112 136.993158,31.8362239 136.993158,35.5142841 C136.993158,39.1923443 139.607682,41.6296132 143.529469,41.6296132 C147.4291,41.6296132 150.043624,39.1923443 150.043624,35.5142841 C150.043624,31.8362239 147.4291,29.421112 143.529469,29.421112 L143.529469,29.421112 Z M143.529469,32.4566196 C145.102616,32.4566196 146.188308,33.719568 146.188308,35.5585981 C146.188308,37.4197852 145.102616,38.6605766 143.529469,38.6605766 C141.934166,38.6605766 140.848474,37.4197852 140.848474,35.5585981 C140.848474,33.719568 141.934166,32.4566196 143.529469,32.4566196 L143.529469,32.4566196 Z M155.937383,29.5540539 L152.104224,29.5540539 L152.104224,41.4966712 L155.937383,41.4966712 L155.937383,35.3591852 C156.136796,33.675254 157.599158,32.6338755 159.814857,32.8332884 L159.814857,29.376798 C158.108768,29.398955 156.757192,30.1744496 155.937383,31.57034 L155.937383,29.5540539 Z M168.522553,38.1952798 C167.946472,38.4390067 167.436861,38.5941056 167.038035,38.5941056 C166.329012,38.6162626 165.930186,38.2174368 165.930186,37.2868432 L165.930186,32.6117185 L169.054321,32.6117185 L169.054321,30.0858217 L165.930186,30.0858217 L165.930186,26.7844303 L162.119184,26.7844303 L162.119184,30.1079787 L160.457409,30.1079787 L160.457409,32.6117185 L162.119184,32.6117185 L162.119184,37.885082 C162.119184,40.3666648 163.780958,41.6739272 166.085285,41.6739272 C167.237448,41.6739272 168.411769,41.3637293 169.275891,40.8541185 L168.522553,38.1952798 Z M175.479848,29.376798 C172.710224,29.376798 170.627467,30.7062174 170.627467,33.1656432 C170.60531,37.3533142 176.787111,36.4448776 176.787111,38.1952798 C176.787111,38.7492045 176.233186,39.0150884 175.479848,39.0150884 C174.150429,39.0150884 172.59944,38.4833207 171.247863,37.5305701 L170.029229,39.967839 C171.469433,41.0756884 173.397091,41.6517702 175.39122,41.6517702 C178.271629,41.6517702 180.420857,40.3001938 180.420857,37.840768 C180.443014,33.675254 174.150429,34.4729056 174.150429,32.8332884 C174.150429,32.2793636 174.637883,32.0134798 175.324749,32.0134798 C176.321814,32.0134798 177.651233,32.4344626 179.091437,33.2099572 L180.3987,30.7283744 C178.936339,29.8642518 177.208093,29.376798 175.479848,29.376798 L175.479848,29.376798 Z" id="peter" fill="#FFFFFF"></path>
                </g>
            </g>
        </g>
    </g>
</svg>